<?xml version="1.0" encoding="utf-8"?>
<!-- Generator: Adobe Illustrator 25.2.3, SVG Export Plug-In . SVG Version: 6.00 Build 0)  -->
<svg version="1.1" id="Capa_1" xmlns="http://www.w3.org/2000/svg" xmlns:xlink="http://www.w3.org/1999/xlink" x="0px" y="0px"
	 viewBox="0 0 792 612" style="enable-background:new 0 0 792 612;" xml:space="preserve">
<style type="text/css">
	.st0{fill:#EBE879;}
	.st1{fill:#B5CE48;}
	.st2{fill:#F7EB61;}
	.st3{fill:#FCC118;}
	.st4{fill:#CD196F;}
	.st5{fill:#E01C2A;}
	.st6{fill:#E52521;}
	.st7{fill:#BABABA;}
	.st8{fill:#1E2647;}
</style>
<path class="st0" d="M2138.5,2516.89c-4.62-4.84-9.3-9.63-13.92-14.5c-0.6-0.63-1.24-1.27-1.9-1.92c-0.12,1.09-0.22,2.16-0.27,3.2
	c-0.58,12.9-0.35,25.92,1.19,38.74c1.67,13.86,7.35,52.24,29.39,45.5c4.13-1.26,7.38-2.88,9.92-4.76c-4.19-1.57-7.98-3.55-10.98-5.8
	C2133.23,2562.05,2136.91,2538.83,2138.5,2516.89z"/>
<path class="st1" d="M2153.66,2533.75c-4.83-5.85-9.95-11.39-15.16-16.85c-1.59,21.94-5.27,45.16,13.45,60.47
	c3,2.25,6.79,4.24,10.98,5.8C2179.01,2571.26,2165.8,2548.46,2153.66,2533.75z"/>
<path class="st1" d="M2087.88,2610.07c-0.3,0.39-0.62,0.76-0.93,1.14c0.37-0.34,0.73-0.69,1.1-1.02
	C2087.99,2610.15,2087.93,2610.11,2087.88,2610.07z"/>
<path class="st2" d="M2093.62,2599.38c18.24,6.14,33.68,18.65,46.52,33.34c2.3-5.3,4.56-10.61,6.26-16.13
	c0.05-0.16,0.12-0.29,0.21-0.41c-16.16-9.32-33.62-16.41-52.06-20.78C2094.32,2596.76,2094.03,2598.09,2093.62,2599.38z"/>
<path class="st2" d="M2146.38,2640.3c4.08,5.21,7.89,10.58,11.39,15.96c1.87,2.88,3.66,5.8,5.43,8.73c0.91-2.88,1.79-5.76,2.68-8.65
	c2.32-7.48,4.35-15.1,6.28-22.73c-7.44-5.9-15.26-11.29-23.41-16.12C2149.07,2625.29,2148.31,2632.86,2146.38,2640.3z"/>
<path class="st2" d="M2178.68,2638.96c-0.16,7.97-1.46,15.92-3.75,23.65c-1.2,4.03-2.34,9.98-4.31,15.27
	c3.67,6.74,7.13,13.6,10.43,20.53c3.91-11.13,8.09-22.15,10.79-33.76c0.84-3.62,1.68-7.24,2.5-10.88
	C2189.35,2648.59,2184.13,2643.63,2178.68,2638.96z"/>
<path class="st2" d="M2202.59,2662.82c-2.51,17.57-7.49,34.89-14.83,50.25c1.82,4.1,3.6,8.21,5.35,12.33
	c8.3-16.75,12.93-36.05,16.49-54.09C2207.34,2668.42,2204.99,2665.6,2202.59,2662.82z"/>
<path class="st3" d="M2211.04,2663.89c4.22-22.42,7.6-46.17,6.44-69.25c-14.12,4.44-27.99,6.61-42.63,3.01
	c-4.6,3.41-9.86,5.99-15.23,7.56c-31.48,9.23-45.86-22.58-50.53-48.07c-0.77-4.2-1.41-8.43-1.95-12.68
	c-5.76,26.84-10.95,44.36-11.67,46.75l-0.62,2.06c-0.07,0.73-0.2,1.44-0.32,2.15c18.44,4.37,35.9,11.46,52.06,20.78
	c0.63-0.82,2.09-0.46,2.15,0.73c0.01,0.19,0,0.37,0.01,0.56c8.15,4.84,15.97,10.23,23.41,16.12c0.97-3.83,1.93-7.67,2.87-11.49
	c0.26-1.04,1.93-1.09,2.16,0c1.15,5.57,1.59,11.21,1.48,16.85c5.45,4.67,10.66,9.62,15.65,14.81c2.87-12.64,5.56-25.37,7.42-38.15
	c0.13-0.94,1.42-0.58,1.52,0.21c1.88,15.05,1.6,31.14-0.67,47c2.4,2.78,4.75,5.6,7.01,8.49
	C2210.1,2668.81,2210.58,2666.33,2211.04,2663.89z"/>
<circle class="st3" cx="2131.07" cy="2051.01" r="28.57"/>
<path class="st2" d="M2133.27,2046.61c0-7.27-5.91-13.19-13.19-13.19s-13.19,5.92-13.19,13.19s5.92,13.19,13.19,13.19
	S2133.27,2053.88,2133.27,2046.61z"/>
<path class="st1" d="M2110.68,2190.02c-0.36-0.08-0.7-0.17-1.06-0.25c-0.07,0.31-0.14,0.6-0.22,0.91
	C2109.83,2190.45,2110.25,2190.24,2110.68,2190.02z"/>
<path class="st4" d="M2043.87,2358.28c11.84-28.32,25.71-55.91,41.59-82.58c-0.31-0.83-0.61-1.66-0.93-2.48
	c-10.23,10.01-27.42,29.09-45.73,58.76c-26.19,42.45-59.98,115.93-73.92,226.2c6.25,2.41,16.58,6.16,29.6,9.84
	c3.54-51.77,13.03-102.73,28.37-151.98c-0.78-1.36-1.53-2.75-2.19-4.23C2011.1,2390.57,2022.47,2366.29,2043.87,2358.28z"/>
<path class="st5" d="M2034.81,2557.06c2.04-12.59,3.09-25.43,4.47-38.11c0.93-8.53,9.9-9.68,14.05-5.23
	c5.17-26.38,10.07-52.81,14.55-79.28c-1.47,0.42-3,0.77-4.62,1.02c-17.11,2.59-31.98-4.77-40.4-19.41
	c-15.34,49.25-24.83,100.21-28.37,151.98c13.05,3.69,28.82,7.32,45.96,9.49c0.85-4.1,1.69-8.21,2.54-12.31
	C2038.89,2566.02,2033.91,2562.57,2034.81,2557.06z"/>
<path class="st5" d="M2085.46,2275.71c-15.88,26.67-29.75,54.25-41.59,82.58c0.95-0.35,1.9-0.69,2.89-0.98
	c11.33-3.32,23.12,0.07,31.77,7.05c3.69-27.73,6.68-55.53,8.81-83.44C2086.74,2279.17,2086.11,2277.43,2085.46,2275.71z"/>
<path class="st6" d="M2087.35,2280.92c-2.14,27.9-5.12,55.71-8.81,83.44c7.04,5.68,12.02,13.75,12.99,22.55
	c0.42,0.3,0.73,0.77,0.78,1.45c1.26,19.47-4.42,40.41-24.42,46.09c-4.47,26.47-9.38,52.9-14.55,79.28c1.58,1.69,2.49,4.17,1.96,7.39
	c-2.14,13.22-4.19,26.53-7.72,39.46c-0.76,2.78-2.57,4.21-4.59,4.62c-0.84,4.11-1.69,8.21-2.54,12.31
	c9.98,1.27,20.42,2.04,31.06,2.04c0,0,0.01,0,0.01,0c2.31,0,4.62-0.36,6.9-0.43C2087.57,2545.32,2125.49,2390.59,2087.35,2280.92z
	 M2076.9,2522.88c-0.83,6.39-1.69,12.78-2.63,19.16c-0.98,6.64-1.28,14.34-3.7,20.64c-2.58,6.7-13.73,6.37-13.32-1.8
	c0.63-12.61,3.31-25.39,4.55-38C2062.76,2513.19,2078.15,2513.35,2076.9,2522.88z"/>
<path class="st7" d="M2065.04,2423.23c14.01-3.73,20.76-15.68,22.85-28.96c-3.01-22.09-34.7-32.45-50.75-15.01
	c-9.78,10.63-8.51,27.11,1.81,37.12C2045.96,2423.17,2055.43,2425.78,2065.04,2423.23z M2045.36,2409.82
	c3.44,0.39,6.61-0.83,9.84-1.82c2.13-0.65,4.78-1.27,6.74-2.36c2.84-1.58,4.63-3.69,5.25-6.93c1.61-8.36-10.83-13.26-16.87-15.04
	c-1.76-0.52-2.01-3.44,0-3.81c7.74-1.42,14.89-1.06,20.99,4.5c4.38,4,7.07,9.77,6.39,15.77c-0.71,6.31-5.14,11.39-10.86,13.9
	c-3.49,1.53-6.84,2.16-10.55,1.53c-4.11-0.7-7.28-3.22-11.08-4.72C2044.73,2410.63,2044.73,2409.75,2045.36,2409.82z"/>
<path class="st3" d="M2071.51,2599C2071.51,2599,2071.51,2599,2071.51,2599c-21.47,0-41.97-2.64-59.81-6.4
	c-2.17,6.83-3.74,13.93-4.98,21.05c3.05,0.56,6.09,1.08,9.07,1.5c13.19,1.88,27.85,1.2,40.48-3.17c8.6-2.98,13.94-7.25,18.03-12.88
	C2073.37,2599.13,2072.44,2599,2071.51,2599z"/>
<path class="st2" d="M1959.7,2577.46c2.43,8.61,6.35,16.76,13.02,22.39c9.42,7.94,21.82,11.64,34,13.89
	c1.24-7.11,2.81-14.13,4.98-20.96C1988.79,2587.94,1970.26,2581.53,1959.7,2577.46z"/>
<path class="st2" d="M1944.28,2563.57l0.05-0.46c1.01-8.65,2.15-17.06,3.38-25.29c-5.47,1.54-10.53,3.87-15.3,7.01
	c-11.92,7.84-22.07,18.18-30.83,29.4c-9.22,11.81-17.44,24.82-24.67,37.95c-0.67,1.21-1.31,2.44-1.94,3.68
	c0.99-0.77,1.99-1.52,3-2.26C1894.79,2591.38,1918.17,2574,1944.28,2563.57z"/>
<path class="st3" d="M1946.1,2571.63l-2.61-1.23l0.79-6.83c-26.11,10.43-49.48,27.81-66.31,50.04c7.91-5.8,16.37-10.76,25.56-14.39
	c12.14-4.79,25.71-8.47,38.9-7.62c1.93,0.12,4.18,0.3,6.53,0.59C1946.66,2585.67,1945.84,2578.79,1946.1,2571.63z"/>
<path class="st8" d="M2232.05,2581.86c-0.84-3.96-5.81-6.89-9.67-5.49c-11.58,4.19-23.33,7.27-35.25,6.59
	c-2.67,5.83-7.04,10.79-12.28,14.68c14.63,3.6,28.51,1.43,42.63-3.01c1.15,23.08-2.22,46.83-6.44,69.25
	c-3.78,20.07-8.46,42.45-17.92,61.52c-1.75-4.12-3.53-8.23-5.35-12.33c13.96-29.24,19.45-65.53,15.5-97.26
	c-0.1-0.78-1.38-1.15-1.52-0.21c-2.39,16.46-6.16,32.83-9.92,49.03c-2.7,11.62-6.88,22.63-10.79,33.76
	c-3.3-6.93-6.76-13.79-10.43-20.53c1.98-5.29,3.12-11.24,4.31-15.27c3.91-13.18,5.05-27.05,2.27-40.49c-0.23-1.09-1.9-1.04-2.16,0
	c-2.82,11.42-5.67,22.98-9.16,34.22c-0.89,2.89-1.78,5.78-2.68,8.65c-1.77-2.93-3.56-5.86-5.43-8.73
	c-3.5-5.38-7.31-10.74-11.39-15.96c1.98-7.62,2.75-15.37,2.37-23.38c-0.06-1.36-1.96-1.64-2.36-0.32
	c-1.7,5.52-3.96,10.83-6.26,16.13c-12.84-14.69-28.27-27.2-46.52-33.34c0.63-1.97,1.05-4.02,1.25-6.12l0.62-2.06
	c0.72-2.38,5.9-19.91,11.67-46.75c-1.46-11.64-2.03-23.42-1.72-35.14c0.17-6.43-0.68-17.96,2.35-25.81
	c-0.64-1.29-1.16-2.61-1.48-3.97c-0.54-2.31,1.17-5.42,3.89-5.11c1.75,0.2,3.5,0.66,5.23,1.29c1.14-0.29,2.34-0.32,3.42,0.09
	c4.44-35.45,6.89-75.64,3.96-115.51c-1.56-21.27-4.65-42.45-9.79-62.77c-0.65-2.55-1.32-5.09-2.04-7.61
	c-2.37-8.4-5.11-16.63-8.25-24.63c-1.72-4.39-3.56-8.71-5.54-12.96l-0.36-0.77c-5.41-2.12-11.09-3.93-16.63-3.75
	c-0.1,0.9-0.21,1.8-0.26,2.69c-6.92,5.79-28.22,25.12-52.35,62.07c-1.63,2.49-3.26,5.04-4.91,7.7
	c-5.77,9.28-11.89,20.01-18.09,32.18c-13.35,26.21-27.08,59.23-38.53,99.61c-2.9,10.23-5.65,20.94-8.22,32.12
	c-2.67,11.64-5.14,23.78-7.35,36.47c-7.84,0.8-16.02,4.51-22.18,7.83c-14.22,7.65-25.87,20.26-35.78,32.75
	c-3.37,4.24-6.55,8.6-9.56,13.07c-6.5,9.63-12.13,19.81-16.55,30.62c-0.6,1.47-1.22,2.98-1.83,4.5c-3.13,7.76-6.16,16.09-6.91,24.45
	c-1.43,3.01-2.12,6.26-1.54,9.8c0.12,0.75,1.02,1.13,1.69,0.96c0.18-0.05,0.34-0.13,0.52-0.18c0.7,0.8,2.23,0.69,2.8-0.28
	c0.2-0.34,0.38-0.69,0.57-1.04c5.9-2.86,10.37-8.06,15.56-12.34c8.89-7.34,19.63-12.73,30.26-17.04
	c10.24-4.15,21.09-6.49,32.14-6.54c6.64-0.03,14.44,3.73,21.36,3.8c13.43,13.32,34.13,18.19,52.08,21.15
	c4.9,0.81,9.95,1.24,15.03,1.31c1.62,0.02,3.25,0.01,4.88-0.05c-0.06-0.37-0.17-0.73-0.21-1.11c-0.32-2.65,3.82-3.62,4.96-1.34
	c0.37,0.73,0.77,1.42,1.2,2.06c0.27-0.03,0.55-0.05,0.83-0.08c9.51-0.97,18.87-3.3,27.38-7.12c4.81-2.16,9.56-5.07,13.75-8.59
	c2.19-1.84,4.21-3.86,6.02-6.03c0.32-0.38,0.63-0.75,0.93-1.14c0.06,0.04,0.11,0.08,0.16,0.12c2.42,1.72,4.81,3.46,7.14,5.23
	c20.07,15.28,36.77,32.75,50.31,55.07c15.49,25.52,26.06,53.59,37.63,81c3.17,7.5,13.01,5.03,16.77,0
	c17.25-23.05,23.66-55.07,28.66-82.77C2233.6,2640.77,2238.04,2609.99,2232.05,2581.86z M1942.42,2591.59
	c-13.19-0.85-26.76,2.83-38.9,7.62c-10.36,4.09-19.8,9.87-28.56,16.64c0.63-1.24,1.27-2.46,1.94-3.68
	c7.23-13.12,15.46-26.13,24.67-37.95c8.76-11.22,18.91-21.55,30.83-29.4c4.78-3.14,9.83-5.47,15.3-7.01
	c-1.23,8.23-2.38,16.64-3.38,25.29l-0.84,7.28l2.61,1.23c-0.26,7.16,0.56,14.05,2.85,20.56
	C1946.6,2591.89,1944.35,2591.72,1942.42,2591.59z M2056.27,2612c-12.63,4.38-27.29,5.07-40.48,3.19
	c-14.85-2.11-31.29-5.42-43.07-15.35c-6.67-5.62-10.59-13.78-13.02-22.39c18.79,7.25,62.78,21.88,111.81,21.88c0,0,0.01,0,0.01,0
	c0.93,0,1.86-0.03,2.79-0.06C2070.21,2604.91,2064.87,2609.02,2056.27,2612z M2078.42,2579.13c-2.29,0.07-4.59,0.43-6.9,0.43
	c0,0-0.01,0-0.01,0c-47.14,0-90.46-15.13-106.62-21.37c13.94-110.27,47.73-183.75,73.92-226.2c18.31-29.67,35.49-48.75,45.73-58.76
	C2127.31,2383.2,2087.78,2544.52,2078.42,2579.13z"/>
<path class="st8" d="M2096.82,2251.56l-1.37-2.94c0.65-2.31,1.22-4.62,1.85-6.73c1.47-4.93,2.73-9.95,3.91-15
	c3.76,0.67,7.48,1.24,11.14,1.72c8.85,1.16,17.33,1.76,25.07,1.76c7.78,0,14.39-0.59,19.85-1.75c11.08-2.35,17.41-7.05,18.82-14.09
	c1.84-9.13-5.53-16.82-16.1-23.02c-8.81-5.17-19.84-9.29-29.7-12.34c-6.53-2.02-12.52-3.56-17-4.62c1.45-5.98,3.02-12.41,4.62-19.01
	c4.11,0.69,8.15,1.26,12.08,1.7c6.5,0.72,12.7,1.1,18.41,1.1c4.31,0,8.17-0.23,11.63-0.65c12.13-1.49,18.96-5.57,20.29-12.21
	c1.96-9.75-9.35-17.64-22.82-23.46c-10.09-4.37-21.36-7.57-29.21-9.51c1.15-4.87,2.19-9.32,3.07-13.15
	c8.03-0.05,15.6-2.07,22.26-5.6c15.32-8.12,25.79-24.23,25.79-42.74c0-26.66-21.69-48.35-48.35-48.35c-0.78,0-1.55,0.02-2.31,0.06
	c-10.67,0.51-20.44,4.48-28.21,10.83c-10.87,8.87-17.83,22.37-17.83,37.46c0,20.45,12.77,37.97,30.76,45.02
	c-0.87,3.78-1.88,8.11-2.99,12.82c-10.57-1.73-20.66-2.64-29.57-2.64c-19.46,0-30.2,4.33-31.92,12.86
	c-1.54,7.67,4.59,14.74,18.75,21.63c8.77,4.27,20.09,8.13,32.52,11.2c-1.59,6.73-3.12,13.25-4.5,19.21
	c-11.2-1.78-21.96-2.71-31.59-2.71c-23.55,0-36.57,5.33-38.68,15.85c-1.82,9.03,5.34,17.7,21.28,25.77
	c5.78,2.93,12.56,5.67,19.96,8.17c5.69,1.91,11.75,3.67,18.08,5.22c-0.4,2.02-0.81,4.04-1.21,6.06c-0.44,2.22-0.89,4.43-1.33,6.65
	c-0.69,3.44-1.62,7.59-2.09,11.7C2085.73,2247.63,2091.42,2249.44,2096.82,2251.56z M2158.94,2137.38c3.78,2.05,6.31,3.89,7.57,5.28
	c-1.27,0.57-3.57,1.24-7.1,1.73c-2.81,0.39-6.39,0.67-11,0.67c-5.86,0-12.31-0.44-19.11-1.28c-2.7-0.33-5.45-0.72-8.24-1.18
	c1.42-5.86,2.82-11.67,4.16-17.22c0.85,0.21,1.69,0.41,2.52,0.62C2141.95,2129.61,2152.36,2133.81,2158.94,2137.38z M2102.5,2051.01
	c0-15.75,12.82-28.57,28.57-28.57s28.57,12.82,28.57,28.57s-12.82,28.57-28.57,28.57S2102.5,2066.76,2102.5,2051.01z
	 M2109.62,2189.76c0.36,0.08,0.7,0.17,1.06,0.25c26.18,6.15,42.99,14.8,48.3,19.97c0.47,0.46,0.88,0.89,1.17,1.29
	c-0.34,0.19-0.78,0.39-1.3,0.6c-3.14,1.27-9.71,2.82-21.42,2.82c-6.58,0-13.79-0.5-21.33-1.42c-2.45-0.3-4.93-0.64-7.44-1.03
	c-1.34-0.21-2.69-0.44-4.05-0.68c0.85-3.95,1.72-7.89,2.63-11.8c0.59-2.51,1.32-5.59,2.17-9.08
	C2109.48,2190.36,2109.55,2190.07,2109.62,2189.76z M2062.82,2121.88c2.28-1.02,7.7-2.4,18.1-2.4c7.95,0,16.98,0.8,26.5,2.31
	c-1.32,5.56-2.7,11.36-4.09,17.18C2079.88,2133.23,2066.35,2125.79,2062.82,2121.88z M2082.78,2206.67
	c-23.66-6.49-38.12-14.78-41.33-19.18c2.38-1.31,9.07-3.42,22.73-3.42c8.54,0,18.12,0.81,28.13,2.36c-0.54,2.47-1,4.68-1.38,6.55
	c-0.65,3.22-1.29,6.43-1.94,9.65c-0.36,1.8-0.72,3.59-1.08,5.39C2086.15,2207.58,2084.44,2207.13,2082.78,2206.67z"/>
<path class="st8" d="M2020.66,2411.82c7.86,17.45,23.89,26.48,42.59,23.65c23.77-3.6,30.4-26.21,29.04-47.11
	c-0.04-0.68-0.36-1.15-0.78-1.45c-2.15-19.61-24.21-35.62-44.76-29.6C2023.5,2364.12,2010.67,2389.63,2020.66,2411.82z
	 M2037.14,2379.25c16.05-17.44,47.74-7.08,50.75,15.01c-2.09,13.28-8.83,25.24-22.85,28.96c-9.61,2.56-19.08-0.05-26.09-6.86
	C2028.64,2406.36,2027.37,2389.88,2037.14,2379.25z"/>
<path class="st8" d="M2045.22,2410.83c3.8,1.5,6.97,4.02,11.08,4.72c3.71,0.63,7.06,0,10.55-1.53c5.72-2.51,10.15-7.59,10.86-13.9
	c0.68-6-2.01-11.77-6.39-15.77c-6.1-5.57-13.25-5.93-20.99-4.5c-2.01,0.37-1.76,3.29,0,3.81c6.04,1.78,18.47,6.69,16.87,15.04
	c-0.62,3.24-2.42,5.35-5.25,6.93c-1.96,1.09-4.61,1.71-6.74,2.36c-3.23,0.99-6.4,2.21-9.84,1.82
	C2044.73,2409.75,2044.73,2410.63,2045.22,2410.83z"/>
<path class="st8" d="M2061.81,2522.88c-1.24,12.61-3.92,25.39-4.55,38c-0.41,8.17,10.75,8.5,13.32,1.8c2.42-6.3,2.72-14,3.7-20.64
	c0.94-6.38,1.8-12.77,2.63-19.16C2078.15,2513.35,2062.76,2513.19,2061.81,2522.88z"/>
<path class="st8" d="M2039.28,2518.95c-1.38,12.68-2.43,25.52-4.47,38.11c-1.33,8.24,10.46,11.92,12.76,3.52
	c3.54-12.94,5.58-26.24,7.72-39.46C2057.19,2509.41,2040.56,2507.18,2039.28,2518.95z"/>
<path class="st8" d="M2115.42,2475.71c-1.74-0.63-3.48-1.09-5.23-1.29c-2.72-0.31-4.43,2.79-3.89,5.11
	c0.32,1.36,0.84,2.68,1.48,3.97c-3.03,7.85-2.18,19.38-2.35,25.81c-0.31,11.72,0.26,23.49,1.72,35.14
	c0.53,4.25,1.17,8.48,1.95,12.68c4.67,25.49,19.04,57.29,50.53,48.07c5.37-1.57,10.63-4.15,15.23-7.56
	c5.23-3.88,9.61-8.85,12.28-14.68c1.14-2.5,1.98-5.15,2.44-7.95c2.46-15.07-4.97-29.71-13.15-41.84
	c-9.79-14.5-22.12-26.97-35.15-38.54c-5.43-4.82-12.23-11.49-19.51-15.85c-0.37-0.63-0.78-1.25-1.28-1.83
	c-0.48-0.56-1.04-0.92-1.65-1.16C2117.77,2475.39,2116.56,2475.42,2115.42,2475.71z M2153.66,2533.75
	c14.06,17.04,29.59,44.94-0.66,54.18c-22.05,6.74-27.73-31.65-29.39-45.5c-1.54-12.83-1.77-25.84-1.19-38.74
	c0.05-1.04,0.14-2.11,0.27-3.2c0.66,0.65,1.3,1.29,1.9,1.92C2134.41,2512.75,2144.55,2522.71,2153.66,2533.75z"/>
<path class="st0" d="M2138.5,2516.89c-4.62-4.84-9.3-9.63-13.92-14.5c-0.6-0.63-1.24-1.27-1.9-1.92c-0.12,1.09-0.22,2.16-0.27,3.2
	c-0.58,12.9-0.35,25.92,1.19,38.74c1.67,13.86,7.35,52.24,29.39,45.5c4.13-1.26,7.38-2.88,9.92-4.76c-4.19-1.57-7.98-3.55-10.98-5.8
	C2133.23,2562.05,2136.91,2538.83,2138.5,2516.89z"/>
<path class="st1" d="M2153.66,2533.75c-4.83-5.85-9.95-11.39-15.16-16.85c-1.59,21.94-5.27,45.16,13.45,60.47
	c3,2.25,6.79,4.24,10.98,5.8C2179.01,2571.26,2165.8,2548.46,2153.66,2533.75z"/>
<path class="st1" d="M2087.88,2610.07c-0.3,0.39-0.62,0.76-0.93,1.14c0.37-0.34,0.73-0.69,1.1-1.02
	C2087.99,2610.15,2087.93,2610.11,2087.88,2610.07z"/>
<path class="st2" d="M2093.62,2599.38c18.24,6.14,33.68,18.65,46.52,33.34c2.3-5.3,4.56-10.61,6.26-16.13
	c0.05-0.16,0.12-0.29,0.21-0.41c-16.16-9.32-33.62-16.41-52.06-20.78C2094.32,2596.76,2094.03,2598.09,2093.62,2599.38z"/>
<path class="st2" d="M2146.38,2640.3c4.08,5.21,7.89,10.58,11.39,15.96c1.87,2.88,3.66,5.8,5.43,8.73c0.91-2.88,1.79-5.76,2.68-8.65
	c2.32-7.48,4.35-15.1,6.28-22.73c-7.44-5.9-15.26-11.29-23.41-16.12C2149.07,2625.29,2148.31,2632.86,2146.38,2640.3z"/>
<path class="st2" d="M2178.68,2638.96c-0.16,7.97-1.46,15.92-3.75,23.65c-1.2,4.03-2.34,9.98-4.31,15.27
	c3.67,6.74,7.13,13.6,10.43,20.53c3.91-11.13,8.09-22.15,10.79-33.76c0.84-3.62,1.68-7.24,2.5-10.88
	C2189.35,2648.59,2184.13,2643.63,2178.68,2638.96z"/>
<path class="st2" d="M2202.59,2662.82c-2.51,17.57-7.49,34.89-14.83,50.25c1.82,4.1,3.6,8.21,5.35,12.33
	c8.3-16.75,12.93-36.05,16.49-54.09C2207.34,2668.42,2204.99,2665.6,2202.59,2662.82z"/>
<path class="st3" d="M2211.04,2663.89c4.22-22.42,7.6-46.17,6.44-69.25c-14.12,4.44-27.99,6.61-42.63,3.01
	c-4.6,3.41-9.86,5.99-15.23,7.56c-31.48,9.23-45.86-22.58-50.53-48.07c-0.77-4.2-1.41-8.43-1.95-12.68
	c-5.76,26.84-10.95,44.36-11.67,46.75l-0.62,2.06c-0.07,0.73-0.2,1.44-0.32,2.15c18.44,4.37,35.9,11.46,52.06,20.78
	c0.63-0.82,2.09-0.46,2.15,0.73c0.01,0.19,0,0.37,0.01,0.56c8.15,4.84,15.97,10.23,23.41,16.12c0.97-3.83,1.93-7.67,2.87-11.49
	c0.26-1.04,1.93-1.09,2.16,0c1.15,5.57,1.59,11.21,1.48,16.85c5.45,4.67,10.66,9.62,15.65,14.81c2.87-12.64,5.56-25.37,7.42-38.15
	c0.13-0.94,1.42-0.58,1.52,0.21c1.88,15.05,1.6,31.14-0.67,47c2.4,2.78,4.75,5.6,7.01,8.49
	C2210.1,2668.81,2210.58,2666.33,2211.04,2663.89z"/>
<circle class="st3" cx="2131.07" cy="2051.01" r="28.57"/>
<path class="st2" d="M2133.27,2046.61c0-7.27-5.91-13.19-13.19-13.19s-13.19,5.92-13.19,13.19s5.92,13.19,13.19,13.19
	S2133.27,2053.88,2133.27,2046.61z"/>
<path class="st1" d="M2110.68,2190.02c-0.36-0.08-0.7-0.17-1.06-0.25c-0.07,0.31-0.14,0.6-0.22,0.91
	C2109.83,2190.45,2110.25,2190.24,2110.68,2190.02z"/>
<path class="st4" d="M2043.87,2358.28c11.84-28.32,25.71-55.91,41.59-82.58c-0.31-0.83-0.61-1.66-0.93-2.48
	c-10.23,10.01-27.42,29.09-45.73,58.76c-26.19,42.45-59.98,115.93-73.92,226.2c6.25,2.41,16.58,6.16,29.6,9.84
	c3.54-51.77,13.03-102.73,28.37-151.98c-0.78-1.36-1.53-2.75-2.19-4.23C2011.1,2390.57,2022.47,2366.29,2043.87,2358.28z"/>
<path class="st5" d="M2034.81,2557.06c2.04-12.59,3.09-25.43,4.47-38.11c0.93-8.53,9.9-9.68,14.05-5.23
	c5.17-26.38,10.07-52.81,14.55-79.28c-1.47,0.42-3,0.77-4.62,1.02c-17.11,2.59-31.98-4.77-40.4-19.41
	c-15.34,49.25-24.83,100.21-28.37,151.98c13.05,3.69,28.82,7.32,45.96,9.49c0.85-4.1,1.69-8.21,2.54-12.31
	C2038.89,2566.02,2033.91,2562.57,2034.81,2557.06z"/>
<path class="st5" d="M2085.46,2275.71c-15.88,26.67-29.75,54.25-41.59,82.58c0.95-0.35,1.9-0.69,2.89-0.98
	c11.33-3.32,23.12,0.07,31.77,7.05c3.69-27.73,6.68-55.53,8.81-83.44C2086.74,2279.17,2086.11,2277.43,2085.46,2275.71z"/>
<path class="st6" d="M2087.35,2280.92c-2.14,27.9-5.12,55.71-8.81,83.44c7.04,5.68,12.02,13.75,12.99,22.55
	c0.42,0.3,0.73,0.77,0.78,1.45c1.26,19.47-4.42,40.41-24.42,46.09c-4.47,26.47-9.38,52.9-14.55,79.28c1.58,1.69,2.49,4.17,1.96,7.39
	c-2.14,13.22-4.19,26.53-7.72,39.46c-0.76,2.78-2.57,4.21-4.59,4.62c-0.84,4.11-1.69,8.21-2.54,12.31
	c9.98,1.27,20.42,2.04,31.06,2.04c0,0,0.01,0,0.01,0c2.31,0,4.62-0.36,6.9-0.43C2087.57,2545.32,2125.49,2390.59,2087.35,2280.92z
	 M2076.9,2522.88c-0.83,6.39-1.69,12.78-2.63,19.16c-0.98,6.64-1.28,14.34-3.7,20.64c-2.58,6.7-13.73,6.37-13.32-1.8
	c0.63-12.61,3.31-25.39,4.55-38C2062.76,2513.19,2078.15,2513.35,2076.9,2522.88z"/>
<path class="st7" d="M2065.04,2423.23c14.01-3.73,20.76-15.68,22.85-28.96c-3.01-22.09-34.7-32.45-50.75-15.01
	c-9.78,10.63-8.51,27.11,1.81,37.12C2045.96,2423.17,2055.43,2425.78,2065.04,2423.23z M2045.36,2409.82
	c3.44,0.39,6.61-0.83,9.84-1.82c2.13-0.65,4.78-1.27,6.74-2.36c2.84-1.58,4.63-3.69,5.25-6.93c1.61-8.36-10.83-13.26-16.87-15.04
	c-1.76-0.52-2.01-3.44,0-3.81c7.74-1.42,14.89-1.06,20.99,4.5c4.38,4,7.07,9.77,6.39,15.77c-0.71,6.31-5.14,11.39-10.86,13.9
	c-3.49,1.53-6.84,2.16-10.55,1.53c-4.11-0.7-7.28-3.22-11.08-4.72C2044.73,2410.63,2044.73,2409.75,2045.36,2409.82z"/>
<path class="st3" d="M2071.51,2599C2071.51,2599,2071.51,2599,2071.51,2599c-21.47,0-41.97-2.64-59.81-6.4
	c-2.17,6.83-3.74,13.93-4.98,21.05c3.05,0.56,6.09,1.08,9.07,1.5c13.19,1.88,27.85,1.2,40.48-3.17c8.6-2.98,13.94-7.25,18.03-12.88
	C2073.37,2599.13,2072.44,2599,2071.51,2599z"/>
<path class="st2" d="M1959.7,2577.46c2.43,8.61,6.35,16.76,13.02,22.39c9.42,7.94,21.82,11.64,34,13.89
	c1.24-7.11,2.81-14.13,4.98-20.96C1988.79,2587.94,1970.26,2581.53,1959.7,2577.46z"/>
<path class="st2" d="M1944.28,2563.57l0.05-0.46c1.01-8.65,2.15-17.06,3.38-25.29c-5.47,1.54-10.53,3.87-15.3,7.01
	c-11.92,7.84-22.07,18.18-30.83,29.4c-9.22,11.81-17.44,24.82-24.67,37.95c-0.67,1.21-1.31,2.44-1.94,3.68
	c0.99-0.77,1.99-1.52,3-2.26C1894.79,2591.38,1918.17,2574,1944.28,2563.57z"/>
<path class="st3" d="M1946.1,2571.63l-2.61-1.23l0.79-6.83c-26.11,10.43-49.48,27.81-66.31,50.04c7.91-5.8,16.37-10.76,25.56-14.39
	c12.14-4.79,25.71-8.47,38.9-7.62c1.93,0.12,4.18,0.3,6.53,0.59C1946.66,2585.67,1945.84,2578.79,1946.1,2571.63z"/>
<path class="st8" d="M2232.05,2581.86c-0.84-3.96-5.81-6.89-9.67-5.49c-11.58,4.19-23.33,7.27-35.25,6.59
	c-2.67,5.83-7.04,10.79-12.28,14.68c14.63,3.6,28.51,1.43,42.63-3.01c1.15,23.08-2.22,46.83-6.44,69.25
	c-3.78,20.07-8.46,42.45-17.92,61.52c-1.75-4.12-3.53-8.23-5.35-12.33c13.96-29.24,19.45-65.53,15.5-97.26
	c-0.1-0.78-1.38-1.15-1.52-0.21c-2.39,16.46-6.16,32.83-9.92,49.03c-2.7,11.62-6.88,22.63-10.79,33.76
	c-3.3-6.93-6.76-13.79-10.43-20.53c1.98-5.29,3.12-11.24,4.31-15.27c3.91-13.18,5.05-27.05,2.27-40.49c-0.23-1.09-1.9-1.04-2.16,0
	c-2.82,11.42-5.67,22.98-9.16,34.22c-0.89,2.89-1.78,5.78-2.68,8.65c-1.77-2.93-3.56-5.86-5.43-8.73
	c-3.5-5.38-7.31-10.74-11.39-15.96c1.98-7.62,2.75-15.37,2.37-23.38c-0.06-1.36-1.96-1.64-2.36-0.32
	c-1.7,5.52-3.96,10.83-6.26,16.13c-12.84-14.69-28.27-27.2-46.52-33.34c0.63-1.97,1.05-4.02,1.25-6.12l0.62-2.06
	c0.72-2.38,5.9-19.91,11.67-46.75c-1.46-11.64-2.03-23.42-1.72-35.14c0.17-6.43-0.68-17.96,2.35-25.81
	c-0.64-1.29-1.16-2.61-1.48-3.97c-0.54-2.31,1.17-5.42,3.89-5.11c1.75,0.2,3.5,0.66,5.23,1.29c1.14-0.29,2.34-0.32,3.42,0.09
	c4.44-35.45,6.89-75.64,3.96-115.51c-1.56-21.27-4.65-42.45-9.79-62.77c-0.65-2.55-1.32-5.09-2.04-7.61
	c-2.37-8.4-5.11-16.63-8.25-24.63c-1.72-4.39-3.56-8.71-5.54-12.96l-0.36-0.77c-5.41-2.12-11.09-3.93-16.63-3.75
	c-0.1,0.9-0.21,1.8-0.26,2.69c-6.92,5.79-28.22,25.12-52.35,62.07c-1.63,2.49-3.26,5.04-4.91,7.7
	c-5.77,9.28-11.89,20.01-18.09,32.18c-13.35,26.21-27.08,59.23-38.53,99.61c-2.9,10.23-5.65,20.94-8.22,32.12
	c-2.67,11.64-5.14,23.78-7.35,36.47c-7.84,0.8-16.02,4.51-22.18,7.83c-14.22,7.65-25.87,20.26-35.78,32.75
	c-3.37,4.24-6.55,8.6-9.56,13.07c-6.5,9.63-12.13,19.81-16.55,30.62c-0.6,1.47-1.22,2.98-1.83,4.5c-3.13,7.76-6.16,16.09-6.91,24.45
	c-1.43,3.01-2.12,6.26-1.54,9.8c0.12,0.75,1.02,1.13,1.69,0.96c0.18-0.05,0.34-0.13,0.52-0.18c0.7,0.8,2.23,0.69,2.8-0.28
	c0.2-0.34,0.38-0.69,0.57-1.04c5.9-2.86,10.37-8.06,15.56-12.34c8.89-7.34,19.63-12.73,30.26-17.04
	c10.24-4.15,21.09-6.49,32.14-6.54c6.64-0.03,14.44,3.73,21.36,3.8c13.43,13.32,34.13,18.19,52.08,21.15
	c4.9,0.81,9.95,1.24,15.03,1.31c1.62,0.02,3.25,0.01,4.88-0.05c-0.06-0.37-0.17-0.73-0.21-1.11c-0.32-2.65,3.82-3.62,4.96-1.34
	c0.37,0.73,0.77,1.42,1.2,2.06c0.27-0.03,0.55-0.05,0.83-0.08c9.51-0.97,18.87-3.3,27.38-7.12c4.81-2.16,9.56-5.07,13.75-8.59
	c2.19-1.84,4.21-3.86,6.02-6.03c0.32-0.38,0.63-0.75,0.93-1.14c0.06,0.04,0.11,0.08,0.16,0.12c2.42,1.72,4.81,3.46,7.14,5.23
	c20.07,15.28,36.77,32.75,50.31,55.07c15.49,25.52,26.06,53.59,37.63,81c3.17,7.5,13.01,5.03,16.77,0
	c17.25-23.05,23.66-55.07,28.66-82.77C2233.6,2640.77,2238.04,2609.99,2232.05,2581.86z M1942.42,2591.59
	c-13.19-0.85-26.76,2.83-38.9,7.62c-10.36,4.09-19.8,9.87-28.56,16.64c0.63-1.24,1.27-2.46,1.94-3.68
	c7.23-13.12,15.46-26.13,24.67-37.95c8.76-11.22,18.91-21.55,30.83-29.4c4.78-3.14,9.83-5.47,15.3-7.01
	c-1.23,8.23-2.38,16.64-3.38,25.29l-0.84,7.28l2.61,1.23c-0.26,7.16,0.56,14.05,2.85,20.56
	C1946.6,2591.89,1944.35,2591.72,1942.42,2591.59z M2056.27,2612c-12.63,4.38-27.29,5.07-40.48,3.19
	c-14.85-2.11-31.29-5.42-43.07-15.35c-6.67-5.62-10.59-13.78-13.02-22.39c18.79,7.25,62.78,21.88,111.81,21.88c0,0,0.01,0,0.01,0
	c0.93,0,1.86-0.03,2.79-0.06C2070.21,2604.91,2064.87,2609.02,2056.27,2612z M2078.42,2579.13c-2.29,0.07-4.59,0.43-6.9,0.43
	c0,0-0.01,0-0.01,0c-47.14,0-90.46-15.13-106.62-21.37c13.94-110.27,47.73-183.75,73.92-226.2c18.31-29.67,35.49-48.75,45.73-58.76
	C2127.31,2383.2,2087.78,2544.52,2078.42,2579.13z"/>
<path class="st8" d="M2096.82,2251.56l-1.37-2.94c0.65-2.31,1.22-4.62,1.85-6.73c1.47-4.93,2.73-9.95,3.91-15
	c3.76,0.67,7.48,1.24,11.14,1.72c8.85,1.16,17.33,1.76,25.07,1.76c7.78,0,14.39-0.59,19.85-1.75c11.08-2.35,17.41-7.05,18.82-14.09
	c1.84-9.13-5.53-16.82-16.1-23.02c-8.81-5.17-19.84-9.29-29.7-12.34c-6.53-2.02-12.52-3.56-17-4.62c1.45-5.98,3.02-12.41,4.62-19.01
	c4.11,0.69,8.15,1.26,12.08,1.7c6.5,0.72,12.7,1.1,18.41,1.1c4.31,0,8.17-0.23,11.63-0.65c12.13-1.49,18.96-5.57,20.29-12.21
	c1.96-9.75-9.35-17.64-22.82-23.46c-10.09-4.37-21.36-7.57-29.21-9.51c1.15-4.87,2.19-9.32,3.07-13.15
	c8.03-0.05,15.6-2.07,22.26-5.6c15.32-8.12,25.79-24.23,25.79-42.74c0-26.66-21.69-48.35-48.35-48.35c-0.78,0-1.55,0.02-2.31,0.06
	c-10.67,0.51-20.44,4.48-28.21,10.83c-10.87,8.87-17.83,22.37-17.83,37.46c0,20.45,12.77,37.97,30.76,45.02
	c-0.87,3.78-1.88,8.11-2.99,12.82c-10.57-1.73-20.66-2.64-29.57-2.64c-19.46,0-30.2,4.33-31.92,12.86
	c-1.54,7.67,4.59,14.74,18.75,21.63c8.77,4.27,20.09,8.13,32.52,11.2c-1.59,6.73-3.12,13.25-4.5,19.21
	c-11.2-1.78-21.96-2.71-31.59-2.71c-23.55,0-36.57,5.33-38.68,15.85c-1.82,9.03,5.34,17.7,21.28,25.77
	c5.78,2.93,12.56,5.67,19.96,8.17c5.69,1.91,11.75,3.67,18.08,5.22c-0.4,2.02-0.81,4.04-1.21,6.06c-0.44,2.22-0.89,4.43-1.33,6.65
	c-0.69,3.44-1.62,7.59-2.09,11.7C2085.73,2247.63,2091.42,2249.44,2096.82,2251.56z M2158.94,2137.38c3.78,2.05,6.31,3.89,7.57,5.28
	c-1.27,0.57-3.57,1.24-7.1,1.73c-2.81,0.39-6.39,0.67-11,0.67c-5.86,0-12.31-0.44-19.11-1.28c-2.7-0.33-5.45-0.72-8.24-1.18
	c1.42-5.86,2.82-11.67,4.16-17.22c0.85,0.21,1.69,0.41,2.52,0.62C2141.95,2129.61,2152.36,2133.81,2158.94,2137.38z M2102.5,2051.01
	c0-15.75,12.82-28.57,28.57-28.57s28.57,12.82,28.57,28.57s-12.82,28.57-28.57,28.57S2102.5,2066.76,2102.5,2051.01z
	 M2109.62,2189.76c0.36,0.08,0.7,0.17,1.06,0.25c26.18,6.15,42.99,14.8,48.3,19.97c0.47,0.46,0.88,0.89,1.17,1.29
	c-0.34,0.19-0.78,0.39-1.3,0.6c-3.14,1.27-9.71,2.82-21.42,2.82c-6.58,0-13.79-0.5-21.33-1.42c-2.45-0.3-4.93-0.64-7.44-1.03
	c-1.34-0.21-2.69-0.44-4.05-0.68c0.85-3.95,1.72-7.89,2.63-11.8c0.59-2.51,1.32-5.59,2.17-9.08
	C2109.48,2190.36,2109.55,2190.07,2109.62,2189.76z M2062.82,2121.88c2.28-1.02,7.7-2.4,18.1-2.4c7.95,0,16.98,0.8,26.5,2.31
	c-1.32,5.56-2.7,11.36-4.09,17.18C2079.88,2133.23,2066.35,2125.79,2062.82,2121.88z M2082.78,2206.67
	c-23.66-6.49-38.12-14.78-41.33-19.18c2.38-1.31,9.07-3.42,22.73-3.42c8.54,0,18.12,0.81,28.13,2.36c-0.54,2.47-1,4.68-1.38,6.55
	c-0.65,3.22-1.29,6.43-1.94,9.65c-0.36,1.8-0.72,3.59-1.08,5.39C2086.15,2207.58,2084.44,2207.13,2082.78,2206.67z"/>
<path class="st8" d="M2020.66,2411.82c7.86,17.45,23.89,26.48,42.59,23.65c23.77-3.6,30.4-26.21,29.04-47.11
	c-0.04-0.68-0.36-1.15-0.78-1.45c-2.15-19.61-24.21-35.62-44.76-29.6C2023.5,2364.12,2010.67,2389.63,2020.66,2411.82z
	 M2037.14,2379.25c16.05-17.44,47.74-7.08,50.75,15.01c-2.09,13.28-8.83,25.24-22.85,28.96c-9.61,2.56-19.08-0.05-26.09-6.86
	C2028.64,2406.36,2027.37,2389.88,2037.14,2379.25z"/>
<path class="st8" d="M2045.22,2410.83c3.8,1.5,6.97,4.02,11.08,4.72c3.71,0.63,7.06,0,10.55-1.53c5.72-2.51,10.15-7.59,10.86-13.9
	c0.68-6-2.01-11.77-6.39-15.77c-6.1-5.57-13.25-5.93-20.99-4.5c-2.01,0.37-1.76,3.29,0,3.81c6.04,1.78,18.47,6.69,16.87,15.04
	c-0.62,3.24-2.42,5.35-5.25,6.93c-1.96,1.09-4.61,1.71-6.74,2.36c-3.23,0.99-6.4,2.21-9.84,1.82
	C2044.73,2409.75,2044.73,2410.63,2045.22,2410.83z"/>
<path class="st8" d="M2061.81,2522.88c-1.24,12.61-3.92,25.39-4.55,38c-0.41,8.17,10.75,8.5,13.32,1.8c2.42-6.3,2.72-14,3.7-20.64
	c0.94-6.38,1.8-12.77,2.63-19.16C2078.15,2513.35,2062.76,2513.19,2061.81,2522.88z"/>
<path class="st8" d="M2039.28,2518.95c-1.38,12.68-2.43,25.52-4.47,38.11c-1.33,8.24,10.46,11.92,12.76,3.52
	c3.54-12.94,5.58-26.24,7.72-39.46C2057.19,2509.41,2040.56,2507.18,2039.28,2518.95z"/>
<path class="st8" d="M2115.42,2475.71c-1.74-0.63-3.48-1.09-5.23-1.29c-2.72-0.31-4.43,2.79-3.89,5.11
	c0.32,1.36,0.84,2.68,1.48,3.97c-3.03,7.85-2.18,19.38-2.35,25.81c-0.31,11.72,0.26,23.49,1.72,35.14
	c0.53,4.25,1.17,8.48,1.95,12.68c4.67,25.49,19.04,57.29,50.53,48.07c5.37-1.57,10.63-4.15,15.23-7.56
	c5.23-3.88,9.61-8.85,12.28-14.68c1.14-2.5,1.98-5.15,2.44-7.95c2.46-15.07-4.97-29.71-13.15-41.84
	c-9.79-14.5-22.12-26.97-35.15-38.54c-5.43-4.82-12.23-11.49-19.51-15.85c-0.37-0.63-0.78-1.25-1.28-1.83
	c-0.48-0.56-1.04-0.92-1.65-1.16C2117.77,2475.39,2116.56,2475.42,2115.42,2475.71z M2153.66,2533.75
	c14.06,17.04,29.59,44.94-0.66,54.18c-22.05,6.74-27.73-31.65-29.39-45.5c-1.54-12.83-1.77-25.84-1.19-38.74
	c0.05-1.04,0.14-2.11,0.27-3.2c0.66,0.65,1.3,1.29,1.9,1.92C2134.41,2512.75,2144.55,2522.71,2153.66,2533.75z"/>
<path class="st0" d="M166.53,241.63c0.77-2.04,1.51-4.08,2.28-6.12c0.1-0.26,0.2-0.54,0.29-0.83c-0.34,0.12-0.67,0.24-0.98,0.37
	c-3.86,1.65-7.64,3.56-11.18,5.82c-3.82,2.45-14.27,9.53-9.18,15.04c0.95,1.03,1.89,1.76,2.8,2.23c-0.13-1.45-0.09-2.84,0.15-4.04
	C152.56,246.46,159.88,244.26,166.53,241.63z"/>
<path class="st1" d="M163.73,248.45c1.03-2.24,1.93-4.52,2.8-6.82c-6.65,2.63-13.97,4.83-15.82,12.48c-0.24,1.2-0.28,2.59-0.15,4.04
	C156.32,261.17,161.14,254.08,163.73,248.45z"/>
<path class="st1" d="M132.08,239.95c-0.16-0.03-0.31-0.07-0.46-0.11c0.15,0.06,0.3,0.12,0.45,0.18
	C132.08,239.99,132.08,239.97,132.08,239.95z"/>
<path class="st2" d="M136.03,240.12c0.78,6.21-0.71,12.5-3.2,18.34c1.88-0.08,3.75-0.16,5.61-0.44c0.05-0.01,0.1-0.01,0.15,0
	c0.45-6.05,0.06-12.17-1.26-18.19C136.89,239.96,136.46,240.06,136.03,240.12z"/>
<path class="st2" d="M131.49,261.36c-0.95,1.93-1.99,3.81-3.07,5.59c-0.58,0.95-1.18,1.89-1.79,2.82c0.97-0.14,1.94-0.29,2.91-0.44
	c2.52-0.38,5.04-0.86,7.55-1.37c0.68-3.01,1.15-6.06,1.42-9.14C136.27,260.03,133.94,260.87,131.49,261.36z"/>
<path class="st2" d="M136.44,270.63c-2.36,1.08-4.87,1.82-7.46,2.24c-1.35,0.22-3.25,0.72-5.08,0.89c-1.46,2.03-2.98,4.01-4.54,5.95
	c3.81-0.43,7.63-0.76,11.42-1.61c1.18-0.26,2.36-0.53,3.54-0.8C135.13,275.12,135.84,272.89,136.44,270.63z"/>
<path class="st2" d="M132.83,281.01c-5.5,1.74-11.28,2.73-16.82,2.75c-0.94,1.11-1.9,2.21-2.86,3.31c6.08,0.07,12.39-1.3,18.18-2.81
	C131.86,283.19,132.35,282.1,132.83,281.01z"/>
<path class="st3" d="M133.71,283.63c7.16-1.93,14.6-4.29,21.2-7.89c-3.29-3.51-5.89-7.27-6.9-12.06c-1.65-0.87-3.15-2.04-4.36-3.39
	c-7.15-7.92,0.14-16.62,6.95-21.59c1.12-0.82,2.27-1.6,3.44-2.36c-8.68,2.1-14.54,3.06-15.34,3.18l-0.69,0.11
	c-0.22,0.08-0.45,0.15-0.68,0.21c1.32,6.02,1.71,12.13,1.26,18.19c0.33,0.07,0.43,0.55,0.09,0.73c-0.05,0.03-0.11,0.05-0.16,0.08
	c-0.27,3.07-0.74,6.12-1.42,9.14c1.26-0.26,2.52-0.52,3.77-0.78c0.34-0.07,0.59,0.41,0.3,0.63c-1.47,1.12-3.06,2.05-4.73,2.81
	c-0.6,2.26-1.31,4.48-2.13,6.68c4.11-0.94,8.22-1.95,12.23-3.21c0.29-0.09,0.37,0.33,0.15,0.47c-4.15,2.68-8.9,4.87-13.87,6.44
	c-0.47,1.09-0.97,2.18-1.5,3.25C132.13,284.05,132.93,283.84,133.71,283.63z"/>
<ellipse transform="matrix(0.9008 -0.4342 0.4342 0.9008 -45.4536 148.3309)" class="st3" cx="301.97" cy="173.66" rx="9.29" ry="9.29"/>
<path class="st2" d="M303.57,173.69c2.13-1.03,3.03-3.59,2-5.72s-3.59-3.03-5.73-2c-2.13,1.03-3.03,3.59-2,5.73
	S301.44,174.71,303.57,173.69z"/>
<path class="st1" d="M258.37,187.32c-0.03-0.12-0.05-0.23-0.07-0.35c-0.1,0.02-0.2,0.04-0.3,0.06
	C258.12,187.13,258.24,187.23,258.37,187.32z"/>
<path class="st4" d="M199.64,191.51c9.97-0.53,20.01-0.36,30.07,0.52c0.2-0.21,0.4-0.41,0.6-0.62c-4.38-1.58-12.39-3.92-23.67-5.1
	c-16.14-1.68-42.43-1.2-76.71,10.28c0.18,2.17,0.54,5.73,1.3,10.06c15.67-6.27,31.94-10.69,48.53-13.15
	c0.29-0.42,0.59-0.84,0.93-1.24C185.55,186.46,194.27,186.37,199.64,191.51z"/>
<path class="st5" d="M140.12,216.92c3.98-1.18,7.89-2.69,11.8-4.07c2.63-0.93,4.23,1.53,3.51,3.38c8.46-2.21,16.89-4.5,25.28-6.93
	c-0.33-0.37-0.65-0.77-0.95-1.21c-3.18-4.65-3.12-10.04-0.02-14.58c-16.59,2.46-32.86,6.88-48.53,13.15
	c0.76,4.34,1.93,9.48,3.71,14.8c1.32-0.33,2.64-0.66,3.97-1C138.07,219.38,138.38,217.44,140.12,216.92z"/>
<path class="st5" d="M229.7,192.03c-10.05-0.89-20.1-1.06-30.07-0.52c0.24,0.23,0.47,0.46,0.69,0.71c2.57,2.85,3.24,6.78,2.42,10.31
	c8.64-2.83,17.21-5.89,25.69-9.2C228.87,192.89,229.29,192.46,229.7,192.03z"/>
<path class="st6" d="M228.44,193.32c-8.48,3.31-17.04,6.37-25.69,9.2c-0.67,2.87-2.33,5.46-4.77,6.99
	c-0.03,0.17-0.12,0.32-0.31,0.43c-5.53,3.12-12.46,4.41-16.95-0.65c-8.39,2.43-16.82,4.72-25.28,6.93c-0.27,0.7-0.87,1.32-1.89,1.62
	c-4.18,1.24-8.36,2.52-12.65,3.31c-0.92,0.17-1.6-0.16-2-0.69c-1.32,0.33-2.64,0.66-3.97,1c1.04,3.1,2.29,6.27,3.79,9.39
	c0,0,0,0,0,0c0.33,0.68,0.76,1.3,1.1,1.96C151.01,230.72,201.7,219.98,228.44,193.32z M156.08,224.43
	c-1.99,0.66-3.98,1.31-5.98,1.94c-2.08,0.65-4.38,1.65-6.57,1.83c-2.33,0.19-3.8-3.12-1.35-4.16c3.78-1.6,7.91-2.62,11.77-4.03
	C156.92,218.91,159.04,223.44,156.08,224.43z"/>
<path class="st7" d="M183.6,206.88c3.07,3.58,7.52,3.87,11.71,2.6c6.05-4,4.61-14.75-2.77-16.99c-4.49-1.36-9.14,1.34-10.62,5.77
	C180.92,201.28,181.49,204.42,183.6,206.88z M184.75,199.22c0.37,1.06,1.18,1.82,1.92,2.63c0.49,0.53,1.05,1.22,1.64,1.64
	c0.86,0.61,1.74,0.83,2.77,0.56c2.68-0.71,2.36-5.04,2.03-7.06c-0.1-0.59,0.72-1.08,1.12-0.54c1.51,2.07,2.41,4.21,1.64,6.78
	c-0.55,1.85-1.86,3.45-3.72,4.1c-1.95,0.68-4.06,0.1-5.6-1.22c-0.94-0.81-1.6-1.7-1.94-2.87c-0.37-1.3-0.08-2.59-0.18-3.91
	C184.42,199.15,184.68,199.03,184.75,199.22z"/>
<path class="st3" d="M133.02,233.59C133.02,233.59,133.02,233.59,133.02,233.59c-3.03-6.29-5.15-12.67-6.57-18.43
	c-2.31,0.33-4.61,0.87-6.87,1.51c0.27,0.97,0.54,1.94,0.84,2.87c1.31,4.13,3.58,8.33,6.65,11.41c2.09,2.1,4.09,3.06,6.32,3.46
	C133.24,234.16,133.15,233.87,133.02,233.59z"/>
<path class="st2" d="M123.54,197.79c-2.18,1.93-4.02,4.23-4.72,6.97c-1,3.88-0.33,8.04,0.73,11.92c2.26-0.64,4.54-1.17,6.84-1.5
	C124.58,207.8,123.84,201.46,123.54,197.79z"/>
<path class="st2" d="M125.43,191.31l0.14-0.05c2.68-0.93,5.3-1.78,7.89-2.58c-1.22-1.38-2.62-2.54-4.22-3.49
	c-3.98-2.39-8.44-3.9-12.97-4.88c-4.76-1.03-9.74-1.6-14.6-1.87c-0.45-0.02-0.9-0.04-1.35-0.05c0.36,0.18,0.73,0.37,1.08,0.56
	C110.3,180.74,118.69,185.14,125.43,191.31z"/>
<path class="st3" d="M123.33,192.99l-0.01-0.94l2.11-0.73c-6.74-6.18-15.14-10.57-24.02-12.36c2.82,1.5,5.46,3.28,7.82,5.46
	c3.12,2.88,6.11,6.34,7.73,10.32c0.24,0.58,0.5,1.27,0.75,2C119.29,195.14,121.19,193.92,123.33,192.99z"/>
<path class="st8" d="M160.71,278.21c1.04-0.8,1.2-2.67,0.24-3.61c-2.86-2.8-5.42-5.81-6.91-9.4c-2.09,0.04-4.16-0.54-6.03-1.52
	c1.01,4.8,3.61,8.55,6.9,12.06c-6.6,3.6-14.03,5.96-21.2,7.89c-6.41,1.73-13.63,3.51-20.55,3.44c0.96-1.1,1.91-2.2,2.86-3.31
	c10.54-0.04,21.95-3.55,30.68-9.19c0.22-0.14,0.14-0.57-0.15-0.47c-5.16,1.62-10.49,2.83-15.76,4.02c-3.78,0.85-7.6,1.18-11.42,1.61
	c1.57-1.95,3.09-3.93,4.54-5.95c1.83-0.17,3.73-0.67,5.08-0.89c4.41-0.72,8.64-2.34,12.18-5.05c0.29-0.22,0.04-0.7-0.3-0.63
	c-3.74,0.79-7.53,1.58-11.32,2.15c-0.97,0.15-1.94,0.3-2.91,0.44c0.61-0.93,1.21-1.87,1.79-2.82c1.08-1.78,2.12-3.66,3.07-5.59
	c2.51-0.5,4.89-1.36,7.18-2.61c0.39-0.21,0.2-0.8-0.24-0.74c-1.86,0.28-3.73,0.37-5.61,0.44c2.49-5.84,3.98-12.12,3.2-18.34
	c0.67-0.09,1.33-0.26,1.97-0.5l0.69-0.11c0.8-0.13,6.67-1.08,15.34-3.18c3.21-2.07,6.57-3.9,10.05-5.47
	c1.91-0.86,5.17-2.74,7.89-2.96c0.29-0.37,0.6-0.71,0.95-0.99c0.6-0.49,1.75-0.42,2.05,0.42c0.19,0.54,0.3,1.12,0.36,1.71
	c0.25,0.29,0.43,0.64,0.46,1.01c11.01-3.71,23.13-8.66,34.4-15.15c6.01-3.46,11.78-7.36,17.01-11.73c0.66-0.55,1.3-1.11,1.94-1.67
	c2.13-1.88,4.15-3.84,6.05-5.9c1.04-1.12,2.05-2.27,3.01-3.45l0.17-0.21c-0.14-1.88-0.41-3.81-1.25-5.4
	c-0.28,0.1-0.56,0.19-0.82,0.3c-2.67-1.21-11.35-4.72-25.58-6.57c-0.96-0.12-1.94-0.24-2.95-0.35c-3.53-0.38-7.54-0.66-11.98-0.76
	c-9.56-0.21-21.18,0.43-34.62,2.78c-3.41,0.59-6.93,1.3-10.57,2.13c-3.79,0.86-7.69,1.85-11.72,3c-1.34-2.18-3.58-4.06-5.43-5.39
	c-4.25-3.09-9.59-4.72-14.65-5.86c-1.72-0.39-3.44-0.7-5.18-0.95c-3.74-0.54-7.52-0.76-11.31-0.53c-0.52,0.03-1.04,0.06-1.58,0.1
	c-2.72,0.18-5.58,0.47-8.14,1.43c-1.08,0.01-2.13,0.26-3.09,0.93c-0.2,0.14-0.19,0.46-0.04,0.63c0.04,0.05,0.09,0.08,0.13,0.13
	c-0.13,0.32,0.11,0.75,0.48,0.78c0.13,0.01,0.26,0.01,0.38,0.02c1.67,1.32,3.83,1.9,5.81,2.82c3.4,1.57,6.5,3.95,9.26,6.46
	c2.66,2.41,4.88,5.26,6.46,8.49c0.95,1.94,0.95,4.76,1.9,6.8c-2.01,5.82-0.51,12.57,1.16,18.25c0.46,1.55,1.04,3.09,1.74,4.59
	c0.22,0.48,0.46,0.95,0.7,1.42c0.1-0.07,0.19-0.15,0.29-0.22c0.73-0.47,1.6,0.61,1.09,1.26c-0.16,0.21-0.31,0.42-0.44,0.64
	c0.05,0.08,0.09,0.16,0.14,0.23c1.63,2.65,3.63,5.06,5.95,7.02c1.31,1.1,2.84,2.09,4.46,2.82c0.85,0.38,1.73,0.69,2.62,0.91
	c0.15,0.04,0.31,0.08,0.46,0.11c0,0.02-0.01,0.04-0.01,0.06c-0.16,0.95-0.33,1.9-0.53,2.83c-1.64,8.04-4.4,15.4-9.03,22.52
	c-5.29,8.14-12.02,15.2-18.42,22.46c-1.75,1.99,0.36,4.52,2.37,4.91c9.19,1.8,19.47-0.84,28.3-3.29
	C143.67,286.98,153.31,283.93,160.71,278.21z M116.96,194.73c-1.61-3.98-4.61-7.44-7.73-10.32c-2.66-2.46-5.69-4.41-8.91-6.02
	c0.45,0.01,0.9,0.02,1.35,0.05c4.87,0.27,9.84,0.84,14.6,1.87c4.52,0.98,8.99,2.5,12.97,4.88c1.59,0.96,2.99,2.11,4.22,3.49
	c-2.58,0.8-5.21,1.65-7.89,2.58l-2.25,0.78l0.01,0.94c-2.14,0.93-4.04,2.15-5.62,3.74C117.46,196,117.19,195.31,116.96,194.73z
	 M127.06,230.96c-3.07-3.08-5.34-7.28-6.65-11.41c-1.48-4.65-2.83-9.93-1.59-14.79c0.71-2.75,2.54-5.05,4.72-6.97
	c0.53,6.53,2.45,21.48,9.38,35.85c0,0,0,0,0,0c0.13,0.27,0.27,0.54,0.41,0.81C131.1,234.05,129.14,233.06,127.06,230.96z
	 M139.81,232.81c-0.34-0.66-0.77-1.29-1.1-1.96c0,0,0,0,0,0c-6.66-13.81-8.34-28.64-8.79-34.26c34.27-11.49,60.57-11.96,76.71-10.28
	c11.28,1.17,19.29,3.52,23.67,5.1C204.12,219.47,151.27,230.67,139.81,232.81z"/>
<path class="st8" d="M238.38,191.95l0.67-0.82c0.77-0.14,1.52-0.3,2.23-0.41c1.65-0.27,3.3-0.6,4.95-0.97
	c0.33,1.2,0.69,2.37,1.07,3.51c0.91,2.76,1.93,5.33,3.02,7.59c1.1,2.28,2.21,4.13,3.32,5.57c2.25,2.92,4.52,4.1,6.79,3.52
	c2.93-0.75,4.15-3.99,4.47-7.97c0.27-3.31-0.08-7.13-0.58-10.44c-0.33-2.2-0.72-4.17-1.05-5.63c1.96-0.42,4.06-0.87,6.22-1.33
	c0.38,1.3,0.78,2.57,1.21,3.78c0.71,2.01,1.47,3.87,2.28,5.55c0.61,1.26,1.22,2.36,1.83,3.31c2.15,3.34,4.31,4.77,6.44,4.22
	c3.13-0.8,3.85-5.23,3.65-10c-0.15-3.57-0.8-7.33-1.34-9.9c1.59-0.35,3.04-0.67,4.29-0.96c1.15,2.35,2.81,4.28,4.78,5.73
	c4.54,3.34,10.74,4.13,16.16,1.52c7.81-3.76,11.1-13.18,7.34-20.99c-0.11-0.23-0.23-0.45-0.34-0.67c-1.65-3.05-4.2-5.35-7.16-6.74
	c-4.13-1.93-9.07-2.06-13.49,0.07c-5.99,2.89-9.32,9.1-8.85,15.37c-1.23,0.28-2.64,0.59-4.18,0.93c-0.99-3.34-2.14-6.43-3.4-9.04
	c-2.75-5.7-5.53-8.24-8.28-7.54c-2.46,0.63-3.67,3.43-3.69,8.55c-0.01,3.17,0.45,7.03,1.31,11.11c-2.2,0.48-4.32,0.96-6.26,1.4
	c-1.06-3.53-2.31-6.82-3.67-9.64c-3.33-6.9-6.73-9.96-10.11-9.09c-2.9,0.74-4.43,4.06-4.54,9.87c-0.04,2.11,0.11,4.48,0.43,7
	c0.24,1.94,0.59,3.96,1.02,6.04c-0.65,0.17-1.3,0.33-1.95,0.5c-0.71,0.18-1.42,0.37-2.14,0.55c-1.11,0.28-2.45,0.6-3.72,1.04
	C237.97,188.14,238.24,190.07,238.38,191.95z M280.6,194.03c-0.07,1.4-0.25,2.4-0.48,2.96c-0.35-0.29-0.87-0.87-1.51-1.84
	c-0.51-0.77-1.1-1.78-1.75-3.13c-0.83-1.72-1.61-3.67-2.32-5.78c-0.28-0.84-0.56-1.7-0.82-2.58c1.92-0.41,3.82-0.82,5.63-1.21
	c0.06,0.28,0.12,0.55,0.17,0.82C280.48,187.95,280.72,191.59,280.6,194.03z M297.94,165.29c4.62-2.22,10.18-0.28,12.4,4.34
	c2.22,4.62,0.28,10.18-4.34,12.4c-4.62,2.22-10.18,0.28-12.4-4.34C291.38,173.08,293.32,167.52,297.94,165.29z M258.29,186.97
	c0.03,0.12,0.05,0.23,0.07,0.35c1.9,8.54,1.73,14.68,0.97,16.97c-0.07,0.2-0.14,0.38-0.21,0.52c-0.1-0.07-0.22-0.17-0.36-0.3
	c-0.82-0.74-2.2-2.45-3.85-5.88c-0.93-1.93-1.8-4.11-2.59-6.45c-0.26-0.76-0.51-1.53-0.75-2.33c-0.13-0.42-0.25-0.85-0.37-1.28
	c1.28-0.31,2.55-0.61,3.83-0.89c0.82-0.18,1.82-0.4,2.97-0.65C258.09,187.02,258.19,187,258.29,186.97z M271.57,163.68
	c0.62,0.53,1.79,1.92,3.26,4.96c1.12,2.33,2.16,5.09,3.06,8.09c-1.82,0.4-3.71,0.81-5.61,1.23
	C270.65,170.28,270.92,165.26,271.57,163.68z M249.55,181.5c-1.44-7.85-1.05-13.25-0.22-14.82c0.72,0.51,2.28,2.17,4.21,6.18
	c1.21,2.5,2.32,5.42,3.28,8.58c-0.8,0.19-1.51,0.37-2.11,0.52c-1.03,0.26-2.07,0.53-3.1,0.8c-0.58,0.15-1.15,0.3-1.73,0.44
	C249.76,182.61,249.65,182.05,249.55,181.5z"/>
<path class="st8" d="M180.67,192.27c-4,4.77-4.38,10.74-0.91,15.82c4.41,6.45,11.97,5.21,17.9,1.86c0.19-0.11,0.29-0.27,0.31-0.43
	c5.44-3.4,7.02-12.12,2.35-17.29C195.05,186.36,185.76,186.21,180.67,192.27z M192.54,192.5c7.38,2.24,8.81,12.99,2.77,16.99
	c-4.19,1.26-8.64,0.98-11.71-2.6c-2.11-2.46-2.68-5.6-1.68-8.61C183.4,193.83,188.05,191.13,192.54,192.5z"/>
<path class="st8" d="M184.43,199.32c0.1,1.33-0.19,2.61,0.18,3.91c0.34,1.17,1,2.07,1.94,2.87c1.54,1.32,3.66,1.9,5.6,1.22
	c1.85-0.65,3.16-2.25,3.72-4.1c0.77-2.57-0.13-4.72-1.64-6.78c-0.39-0.54-1.21-0.05-1.12,0.54c0.33,2.02,0.65,6.36-2.03,7.06
	c-1.04,0.27-1.91,0.05-2.77-0.56c-0.6-0.42-1.15-1.11-1.64-1.64c-0.75-0.81-1.55-1.56-1.92-2.63
	C184.68,199.03,184.42,199.15,184.43,199.32z"/>
<path class="st8" d="M153.95,220c-3.87,1.42-7.99,2.44-11.77,4.03c-2.45,1.03-0.97,4.35,1.35,4.16c2.19-0.18,4.49-1.18,6.57-1.83
	c2-0.63,3.99-1.28,5.98-1.94C159.04,223.44,156.92,218.91,153.95,220z"/>
<path class="st8" d="M151.92,212.85c-3.91,1.39-7.82,2.89-11.8,4.07c-2.6,0.77-2.01,4.75,0.77,4.24c4.29-0.79,8.48-2.07,12.65-3.31
	C157.24,216.75,155.55,211.56,151.92,212.85z"/>
<path class="st8" d="M175.34,229.05c-0.06-0.6-0.17-1.17-0.36-1.71c-0.29-0.84-1.44-0.9-2.05-0.42c-0.35,0.29-0.67,0.62-0.95,0.99
	c-2.73,0.22-5.99,2.1-7.89,2.96c-3.48,1.56-6.85,3.39-10.05,5.47c-1.17,0.76-2.32,1.54-3.44,2.36c-6.81,4.97-14.1,13.67-6.95,21.59
	c1.22,1.35,2.72,2.53,4.36,3.39c1.88,0.99,3.95,1.56,6.03,1.52c0.89-0.02,1.79-0.15,2.67-0.41c4.76-1.41,8-5.65,10.4-9.76
	c2.87-4.92,4.78-10.29,6.33-15.74c0.65-2.27,1.64-5.2,1.89-7.95c0.13-0.2,0.25-0.4,0.36-0.63c0.1-0.22,0.12-0.44,0.11-0.65
	C175.76,229.69,175.58,229.34,175.34,229.05z M163.73,248.45c-3.01,6.53-8.99,15.01-15.97,7.46c-5.09-5.51,5.36-12.59,9.18-15.04
	c3.54-2.26,7.32-4.17,11.18-5.82c0.31-0.13,0.64-0.26,0.98-0.37c-0.1,0.28-0.19,0.56-0.29,0.83
	C167.16,239.84,165.68,244.22,163.73,248.45z"/>
</svg>
