<?xml version="1.0" encoding="utf-8"?>
<!-- Generator: Adobe Illustrator 25.2.3, SVG Export Plug-In . SVG Version: 6.00 Build 0)  -->
<svg version="1.1"
	 id="svg2" inkscape:export-filename="C:\Users\USER\Desktop\Spacers.png" inkscape:export-xdpi="500" inkscape:export-ydpi="500" inkscape:version="0.47 r22583" sodipodi:docname="Background Tech.svg" xmlns:cc="http://creativecommons.org/ns#" xmlns:dc="http://purl.org/dc/elements/1.1/" xmlns:inkscape="http://www.inkscape.org/namespaces/inkscape" xmlns:rdf="http://www.w3.org/1999/02/22-rdf-syntax-ns#" xmlns:sodipodi="http://sodipodi.sourceforge.net/DTD/sodipodi-0.dtd" xmlns:svg="http://www.w3.org/2000/svg"
	 xmlns="http://www.w3.org/2000/svg" xmlns:xlink="http://www.w3.org/1999/xlink" x="0px" y="0px" viewBox="0 0 900 830"
	 style="enable-background:new 0 0 900 830;" xml:space="preserve">
<style type="text/css">
	.st0{fill:#EAE778;}
	.st1{fill:#B3CD47;}
	.st2{fill:#F6EA60;}
	.st3{fill:#FBC016;}
	.st4{fill:#CB176F;}
	.st5{fill:#DF1B29;}
	.st6{fill:#E42320;}
	.st7{fill:#BABABA;}
	.st8{fill:#1E2547;}
</style>
<defs>
	
		<inkscape:perspective  id="perspective10" inkscape:persp3d-origin="372.04724 : 350.78739 : 1" inkscape:vp_x="0 : 526.18109 : 1" inkscape:vp_y="0 : 1000 : 0" inkscape:vp_z="744.09448 : 526.18109 : 1" sodipodi:type="inkscape:persp3d">
		</inkscape:perspective>
	
		<inkscape:perspective  id="perspective5461" inkscape:persp3d-origin="0.5 : 0.33333333 : 1" inkscape:vp_x="0 : 0.5 : 1" inkscape:vp_y="0 : 1000 : 0" inkscape:vp_z="1 : 0.5 : 1" sodipodi:type="inkscape:persp3d">
		</inkscape:perspective>
	
		<inkscape:perspective  id="perspective8679" inkscape:persp3d-origin="0.5 : 0.33333333 : 1" inkscape:vp_x="0 : 0.5 : 1" inkscape:vp_y="0 : 1000 : 0" inkscape:vp_z="1 : 0.5 : 1" sodipodi:type="inkscape:persp3d">
		</inkscape:perspective>
	
		<inkscape:perspective  id="perspective8706" inkscape:persp3d-origin="0.5 : 0.33333333 : 1" inkscape:vp_x="0 : 0.5 : 1" inkscape:vp_y="0 : 1000 : 0" inkscape:vp_z="1 : 0.5 : 1" sodipodi:type="inkscape:persp3d">
		</inkscape:perspective>
</defs>
<sodipodi:namedview  bordercolor="#666666" borderopacity="1.0" id="base" inkscape:current-layer="layer1" inkscape:cx="208.66767" inkscape:cy="444.20454" inkscape:document-units="px" inkscape:pageopacity="0.0" inkscape:pageshadow="2" inkscape:showpageshadow="false" inkscape:window-height="718" inkscape:window-maximized="1" inkscape:window-width="1280" inkscape:window-x="-8" inkscape:window-y="-8" inkscape:zoom="0.35000001" pagecolor="#ffffff" showgrid="false">
	</sodipodi:namedview>
<path class="st0" d="M351.19,519.99c2.51-6.65,4.92-13.34,7.45-20.01c0.33-0.86,0.64-1.77,0.96-2.7c-1.1,0.39-2.17,0.79-3.19,1.22
	c-12.62,5.4-24.97,11.62-36.53,19.01c-12.49,7.99-46.61,31.13-29.99,49.12c3.11,3.37,6.16,5.73,9.14,7.3
	c-0.44-4.74-0.28-9.27,0.49-13.19C305.54,535.78,329.45,528.59,351.19,519.99z"/>
<path class="st1" d="M342.05,542.28c3.37-7.32,6.31-14.78,9.14-22.28c-21.73,8.6-45.65,15.79-51.67,40.76
	c-0.77,3.91-0.92,8.45-0.49,13.19C317.84,583.84,333.56,560.69,342.05,542.28z"/>
<path class="st1" d="M238.66,514.53c-0.51-0.11-1.01-0.24-1.52-0.37c0.49,0.19,0.99,0.38,1.48,0.58
	C238.63,514.67,238.64,514.6,238.66,514.53z"/>
<path class="st2" d="M251.53,515.09c2.54,20.29-2.31,40.84-10.45,59.9c6.13-0.25,12.26-0.53,18.32-1.45
	c0.18-0.03,0.34-0.02,0.49,0.01c1.46-19.77,0.19-39.75-4.13-59.41C254.36,514.55,252.96,514.89,251.53,515.09z"/>
<path class="st2" d="M236.71,584.46c-3.11,6.31-6.49,12.43-10.02,18.27c-1.89,3.12-3.86,6.18-5.85,9.23
	c3.17-0.46,6.34-0.95,9.52-1.42c8.23-1.23,16.46-2.81,24.65-4.47c2.21-9.84,3.76-19.81,4.63-29.85
	C252.32,580.11,244.72,582.88,236.71,584.46z"/>
<path class="st2" d="M252.89,614.76c-7.7,3.52-15.92,5.95-24.36,7.31c-4.41,0.72-10.63,2.37-16.61,2.92
	c-4.76,6.62-9.72,13.09-14.84,19.45c12.46-1.39,24.93-2.47,37.29-5.25c3.85-0.86,7.7-1.74,11.56-2.62
	C248.6,629.41,250.93,622.13,252.89,614.76z"/>
<path class="st2" d="M241.08,648.66c-17.98,5.7-36.84,8.92-54.93,8.99c-3.08,3.63-6.19,7.23-9.33,10.81
	c19.86,0.22,40.46-4.26,59.38-9.17C237.91,655.78,239.53,652.23,241.08,648.66z"/>
<path class="st3" d="M243.96,657.23c23.4-6.3,47.69-14.03,69.25-25.78c-10.76-11.47-19.24-23.74-22.54-39.41
	c-5.38-2.83-10.28-6.68-14.26-11.09c-23.35-25.88,0.46-54.31,22.7-70.53c3.67-2.68,7.42-5.24,11.24-7.71
	c-28.34,6.87-47.51,9.99-50.12,10.4l-2.26,0.36c-0.73,0.27-1.47,0.47-2.21,0.69c4.32,19.66,5.59,39.64,4.13,59.41
	c1.08,0.22,1.41,1.79,0.3,2.39c-0.18,0.1-0.36,0.17-0.53,0.27c-0.87,10.03-2.42,20.01-4.63,29.85c4.12-0.84,8.23-1.69,12.32-2.55
	c1.12-0.23,1.94,1.34,0.99,2.06c-4.8,3.67-10,6.7-15.44,9.19c-1.96,7.37-4.29,14.65-6.95,21.81c13.42-3.09,26.84-6.38,39.94-10.5
	c0.96-0.3,1.21,1.09,0.5,1.55c-13.54,8.74-29.06,15.89-45.3,21.04c-1.55,3.58-3.17,7.13-4.89,10.63
	C238.82,658.6,241.41,657.91,243.96,657.23z"/>
<ellipse transform="matrix(0.9008 -0.4342 0.4342 0.9008 -50.6621 374.1378)" class="st3" cx="793.66" cy="297.97" rx="30.36" ry="30.36"/>
<path class="st2" d="M798.88,298.04c6.96-3.35,9.89-11.74,6.54-18.7c-3.35-6.96-11.74-9.89-18.7-6.54s-9.89,11.74-6.54,18.7
	C783.53,298.47,791.92,301.4,798.88,298.04z"/>
<path class="st1" d="M651.21,342.58c-0.08-0.38-0.16-0.75-0.24-1.13c-0.33,0.07-0.64,0.14-0.97,0.21
	C650.4,341.96,650.8,342.27,651.21,342.58z"/>
<path class="st4" d="M459.34,356.26c32.57-1.74,65.37-1.18,98.22,1.71c0.65-0.68,1.31-1.35,1.95-2.03
	c-14.3-5.17-40.49-12.82-77.33-16.66c-52.71-5.48-138.63-3.93-250.6,33.59c0.57,7.1,1.76,18.71,4.24,32.87
	c51.18-20.49,104.34-34.92,158.54-42.95c0.94-1.37,1.93-2.73,3.04-4.05C413.32,339.78,441.81,339.46,459.34,356.26z"/>
<path class="st5" d="M264.91,439.28c12.99-3.85,25.76-8.77,38.54-13.3c8.6-3.05,13.83,5.01,11.48,11.04
	c27.64-7.22,55.19-14.72,82.59-22.65c-1.08-1.21-2.12-2.51-3.1-3.95c-10.38-15.18-10.18-32.81-0.06-47.62
	c-54.21,8.04-107.36,22.46-158.54,42.95c2.49,14.19,6.29,30.96,12.12,48.36c4.32-1.08,8.64-2.17,12.95-3.25
	C258.22,447.32,259.22,440.97,264.91,439.28z"/>
<path class="st5" d="M557.56,357.97c-32.85-2.9-65.65-3.45-98.22-1.71c0.78,0.74,1.54,1.5,2.27,2.31
	c8.41,9.31,10.6,22.16,7.91,33.67c28.24-9.26,56.23-19.23,83.92-30.05C554.83,360.79,556.21,359.39,557.56,357.97z"/>
<path class="st6" d="M553.43,362.18c-27.69,10.83-55.68,20.8-83.92,30.05c-2.19,9.36-7.61,17.85-15.59,22.83
	c-0.09,0.54-0.4,1.06-1.03,1.41c-18.05,10.19-40.71,14.4-55.38-2.11c-27.4,7.93-54.95,15.42-82.59,22.65
	c-0.89,2.29-2.84,4.3-6.17,5.29c-13.64,4.05-27.32,8.23-41.33,10.81c-3.01,0.55-5.22-0.51-6.54-2.26
	c-4.32,1.09-8.64,2.17-12.95,3.25c3.39,10.14,7.47,20.49,12.37,30.67c0,0,0,0.01,0,0.01c1.07,2.21,2.47,4.25,3.59,6.41
	C300.49,484.36,466.07,449.27,553.43,362.18z M317.04,463.8c-6.5,2.15-13.01,4.28-19.55,6.32c-6.81,2.13-14.31,5.39-21.46,5.98
	c-7.6,0.63-12.43-10.2-4.42-13.58c12.35-5.22,25.83-8.54,38.47-13.17C319.79,445.8,326.73,460.6,317.04,463.8z"/>
<path class="st7" d="M406.95,406.48c10.03,11.69,24.58,12.63,38.26,8.51c19.75-13.07,15.05-48.18-9.04-55.49
	c-14.68-4.46-29.87,4.36-34.69,18.85C398.2,388.19,400.07,398.46,406.95,406.48z M410.7,381.45c1.22,3.47,3.84,5.95,6.28,8.58
	c1.61,1.74,3.42,3.99,5.37,5.36c2.82,1.99,5.67,2.73,9.06,1.83c8.74-2.31,7.7-16.48,6.62-23.08c-0.32-1.92,2.36-3.51,3.64-1.76
	c4.93,6.75,7.89,13.76,5.37,22.16c-1.81,6.03-6.09,11.27-12.14,13.39c-6.37,2.23-13.27,0.33-18.31-3.98
	c-3.07-2.63-5.22-5.55-6.33-9.39c-1.22-4.25-0.28-8.45-0.59-12.78C409.63,381.23,410.48,380.82,410.7,381.45z"/>
<path class="st3" d="M241.7,493.76C241.7,493.76,241.7,493.75,241.7,493.76c-9.91-20.55-16.84-41.39-21.47-60.2
	c-7.54,1.07-15.06,2.85-22.44,4.94c0.87,3.18,1.78,6.33,2.74,9.37c4.29,13.49,11.69,27.21,21.71,37.28
	c6.82,6.86,13.37,10,20.64,11.32C242.43,495.59,242.13,494.65,241.7,493.76z"/>
<path class="st2" d="M210.74,376.8c-7.12,6.3-13.12,13.81-15.42,22.79c-3.26,12.68-1.07,26.25,2.4,38.95
	c7.38-2.09,14.82-3.83,22.36-4.9C214.13,409.48,211.71,388.79,210.74,376.8z"/>
<path class="st2" d="M216.92,355.63l0.46-0.16c8.74-3.03,17.32-5.81,25.76-8.43c-4-4.52-8.56-8.29-13.77-11.41
	c-13.01-7.79-27.58-12.74-42.36-15.95c-15.56-3.37-31.81-5.24-47.7-6.11c-1.47-0.08-2.94-0.13-4.41-0.16
	c1.19,0.59,2.37,1.21,3.54,1.83C167.47,321.1,194.89,335.45,216.92,355.63z"/>
<path class="st3" d="M210.05,361.1l-0.03-3.07l6.9-2.4c-22.03-20.18-49.45-34.53-78.48-40.38c9.2,4.89,17.85,10.71,25.56,17.82
	c10.18,9.41,19.97,20.7,25.24,33.71c0.77,1.9,1.64,4.14,2.45,6.52C196.86,368.12,203.07,364.15,210.05,361.1z"/>
<path class="st8" d="M332.16,639.5c3.4-2.63,3.91-8.74,0.79-11.79c-9.36-9.15-17.72-18.98-22.57-30.7
	c-6.81,0.13-13.58-1.76-19.71-4.98c3.3,15.67,11.78,27.94,22.54,39.41c-21.56,11.75-45.85,19.48-69.25,25.78
	c-20.95,5.64-44.53,11.48-67.15,11.23c3.14-3.58,6.25-7.18,9.33-10.81c34.43-0.12,71.69-11.61,100.23-30.03
	c0.7-0.45,0.46-1.85-0.5-1.55c-16.86,5.3-34.26,9.25-51.5,13.13c-12.36,2.78-24.83,3.86-37.29,5.25
	c5.11-6.36,10.08-12.83,14.84-19.45c5.98-0.55,12.2-2.2,16.61-2.92c14.42-2.34,28.22-7.64,39.8-16.5c0.94-0.72,0.12-2.3-0.99-2.06
	c-12.23,2.58-24.61,5.17-36.97,7.02c-3.18,0.48-6.35,0.96-9.52,1.42c1.99-3.05,3.96-6.11,5.85-9.23
	c3.53-5.83,6.91-11.95,10.02-18.27c8.21-1.62,15.98-4.46,23.47-8.51c1.27-0.69,0.66-2.63-0.78-2.41c-6.07,0.92-12.19,1.2-18.32,1.45
	c8.14-19.06,12.99-39.61,10.45-59.9c2.18-0.3,4.33-0.84,6.43-1.63l2.26-0.36c2.61-0.41,21.78-3.53,50.12-10.4
	c10.47-6.77,21.47-12.75,32.84-17.86c6.23-2.8,16.88-8.94,25.79-9.66c0.94-1.21,1.96-2.31,3.12-3.25c1.96-1.59,5.72-1.38,6.68,1.37
	c0.62,1.77,0.98,3.65,1.18,5.6c0.8,0.96,1.39,2.09,1.49,3.31c35.97-12.1,75.57-28.3,112.38-49.49
	c19.64-11.31,38.49-24.03,55.56-38.32c2.14-1.79,4.26-3.62,6.35-5.46c6.95-6.14,13.56-12.56,19.77-19.26
	c3.41-3.67,6.7-7.43,9.85-11.28l0.57-0.7c-0.47-6.15-1.35-12.43-4.08-17.65c-0.91,0.32-1.82,0.63-2.69,0.99
	c-8.73-3.96-37.07-15.42-83.56-21.47c-3.13-0.41-6.33-0.79-9.63-1.15c-11.55-1.24-24.64-2.15-39.15-2.47
	c-31.24-0.69-69.18,1.41-113.11,9.07c-11.13,1.94-22.65,4.25-34.54,6.95c-12.37,2.81-25.13,6.05-38.29,9.78
	c-4.38-7.14-11.71-13.25-17.72-17.62c-13.88-10.09-31.33-15.41-47.85-19.14c-5.61-1.27-11.25-2.3-16.91-3.12
	c-12.22-1.78-24.55-2.47-36.94-1.72c-1.69,0.1-3.41,0.21-5.15,0.32c-8.87,0.59-18.24,1.52-26.58,4.67
	c-3.54,0.02-6.97,0.87-10.09,3.05c-0.66,0.46-0.61,1.5-0.14,2.06c0.13,0.15,0.28,0.27,0.41,0.41c-0.44,1.04,0.37,2.45,1.56,2.55
	c0.42,0.03,0.84,0.04,1.26,0.07c5.46,4.33,12.5,6.21,18.99,9.2c11.12,5.12,21.24,12.91,30.27,21.1c8.69,7.88,15.94,17.2,21.09,27.74
	c3.09,6.34,3.09,15.54,6.22,22.2c-6.55,19-1.66,41.06,3.78,59.6c1.49,5.06,3.4,10.09,5.68,14.99c0.73,1.57,1.49,3.12,2.29,4.65
	c0.33-0.23,0.62-0.5,0.96-0.72c2.39-1.53,5.22,1.99,3.57,4.13c-0.53,0.69-1,1.39-1.42,2.1c0.15,0.25,0.3,0.51,0.46,0.76
	c5.32,8.65,11.87,16.54,19.45,22.92c4.28,3.61,9.26,6.81,14.57,9.2c2.78,1.25,5.64,2.25,8.54,2.98c0.51,0.13,1.01,0.26,1.52,0.37
	c-0.01,0.07-0.02,0.14-0.04,0.21c-0.53,3.11-1.09,6.2-1.72,9.25c-5.37,26.26-14.38,50.3-29.5,73.56
	c-17.29,26.6-39.27,49.66-60.16,73.38c-5.72,6.49,1.18,14.77,7.74,16.05c30.02,5.87,63.62-2.76,92.44-10.75
	C276.49,668.16,308,658.21,332.16,639.5z M189.24,366.79c-5.27-13.01-15.06-24.31-25.24-33.71c-8.69-8.03-18.58-14.4-29.1-19.66
	c1.47,0.03,2.94,0.08,4.41,0.16c15.9,0.87,32.14,2.74,47.7,6.11c14.78,3.21,29.35,8.16,42.36,15.95c5.21,3.12,9.77,6.89,13.77,11.41
	c-8.44,2.61-17.02,5.4-25.76,8.43l-7.36,2.56l0.03,3.07c-6.98,3.05-13.18,7.02-18.36,12.21
	C190.88,370.92,190.01,368.69,189.24,366.79z M222.23,485.16c-10.02-10.07-17.44-23.78-21.73-37.27
	c-4.83-15.19-9.25-32.45-5.18-48.3c2.31-8.98,8.31-16.49,15.42-22.79c1.73,21.33,8.02,70.18,30.64,117.1c0,0,0,0.01,0,0.01
	c0.43,0.89,0.88,1.76,1.34,2.64C235.44,495.23,229.05,492.02,222.23,485.16z M263.9,491.2c-1.12-2.16-2.53-4.2-3.59-6.41
	c0,0,0-0.01,0-0.01c-21.74-45.11-27.25-93.57-28.73-111.91c111.97-37.53,197.89-39.08,250.6-33.59
	c36.84,3.84,63.03,11.48,77.33,16.66C473.98,447.61,301.35,484.2,263.9,491.2z"/>
<path class="st8" d="M585.91,357.7l2.18-2.67c2.51-0.45,4.98-0.96,7.3-1.34c5.4-0.87,10.79-1.97,16.16-3.17
	c1.09,3.91,2.26,7.73,3.49,11.46c2.97,9,6.31,17.4,9.88,24.81c3.59,7.45,7.2,13.49,10.84,18.19c7.36,9.52,14.78,13.41,22.17,11.51
	c9.59-2.45,13.55-13.05,14.6-26.02c0.88-10.82-0.26-23.28-1.89-34.12c-1.08-7.18-2.37-13.63-3.42-18.4
	c6.39-1.37,13.27-2.84,20.32-4.34c1.24,4.25,2.55,8.38,3.94,12.35c2.31,6.55,4.81,12.66,7.44,18.12c1.99,4.13,3.99,7.72,5.98,10.83
	c7.02,10.92,14.08,15.57,21.05,13.79c10.23-2.62,12.57-17.09,11.93-32.66c-0.48-11.67-2.61-23.94-4.37-32.34
	c5.19-1.14,9.93-2.2,14-3.13c3.75,7.66,9.18,13.98,15.62,18.72c14.84,10.92,35.08,13.5,52.81,4.96
	c25.52-12.3,36.27-43.06,23.97-68.58c-0.36-0.74-0.74-1.47-1.12-2.19c-5.4-9.98-13.72-17.49-23.38-22.01
	c-13.51-6.31-29.63-6.74-44.08,0.22c-19.58,9.44-30.45,29.74-28.9,50.21c-4.02,0.91-8.63,1.94-13.65,3.05
	c-3.22-10.91-7-21-11.11-29.52c-8.98-18.63-18.07-26.91-27.04-24.62c-8.05,2.06-11.99,11.2-12.05,27.92
	c-0.04,10.36,1.48,22.98,4.29,36.29c-7.18,1.58-14.12,3.12-20.46,4.56c-3.46-11.53-7.53-22.27-11.98-31.49
	c-10.86-22.54-21.97-32.54-33.01-29.71c-9.48,2.43-14.48,13.28-14.85,32.26c-0.13,6.88,0.36,14.64,1.39,22.87
	c0.79,6.33,1.91,12.94,3.34,19.72c-2.12,0.55-4.24,1.09-6.36,1.63c-2.33,0.6-4.65,1.19-6.98,1.79c-3.61,0.93-8.01,1.95-12.16,3.4
	C584.56,345.27,585.44,351.55,585.91,357.7z M723.85,364.49c-0.22,4.57-0.81,7.83-1.56,9.68c-1.13-0.96-2.83-2.84-4.93-6
	c-1.67-2.51-3.59-5.81-5.71-10.22c-2.7-5.61-5.26-11.99-7.59-18.88c-0.93-2.73-1.82-5.54-2.67-8.43c6.27-1.34,12.47-2.68,18.4-3.96
	c0.19,0.91,0.39,1.81,0.57,2.69C723.45,344.64,724.23,356.55,723.85,364.49z M780.48,270.62c15.08-7.27,33.26-0.91,40.52,14.17
	c7.27,15.08,0.91,33.26-14.17,40.52c-15.08,7.27-33.26,0.91-40.52-14.17C759.05,296.07,765.4,277.89,780.48,270.62z M650.96,341.45
	c0.09,0.38,0.16,0.75,0.24,1.13c6.19,27.9,5.66,47.97,3.17,55.44c-0.22,0.66-0.45,1.25-0.7,1.71c-0.33-0.24-0.73-0.57-1.18-0.97
	c-2.66-2.42-7.18-8-12.58-19.2c-3.04-6.3-5.89-13.42-8.47-21.07c-0.84-2.49-1.66-5.01-2.44-7.6c-0.42-1.38-0.82-2.78-1.22-4.19
	c4.17-1,8.35-2,12.51-2.92c2.67-0.59,5.96-1.31,9.69-2.12C650.32,341.59,650.63,341.52,650.96,341.45z M694.34,265.34
	c2.03,1.72,5.85,6.26,10.64,16.22c3.67,7.61,7.07,16.62,10.01,26.43c-5.94,1.3-12.12,2.65-18.33,4.01
	C691.35,286.9,692.23,270.52,694.34,265.34z M622.39,323.56c-4.7-25.64-3.44-43.3-0.7-48.4c2.35,1.67,7.45,7.1,13.76,20.17
	c3.94,8.17,7.58,17.71,10.72,28.01c-2.61,0.62-4.94,1.2-6.91,1.7c-3.38,0.87-6.75,1.73-10.13,2.6c-1.88,0.49-3.77,0.97-5.65,1.45
	C623.08,327.21,622.72,325.36,622.39,323.56z"/>
<path class="st8" d="M397.4,358.74c-13.08,15.57-14.32,35.08-2.98,51.67c14.41,21.09,39.11,17.01,58.48,6.07
	c0.63-0.36,0.94-0.87,1.03-1.41c17.78-11.1,22.93-39.61,7.68-56.5C444.35,339.46,414.02,338.94,397.4,358.74z M436.17,359.49
	c24.1,7.31,28.8,42.42,9.04,55.49c-13.68,4.13-28.23,3.19-38.26-8.51c-6.88-8.02-8.75-18.29-5.47-28.14
	C406.3,363.86,421.49,355.04,436.17,359.49z"/>
<path class="st8" d="M409.67,381.79c0.32,4.33-0.63,8.53,0.59,12.78c1.1,3.84,3.25,6.76,6.33,9.39c5.04,4.32,11.94,6.21,18.31,3.98
	c6.05-2.12,10.33-7.36,12.14-13.39c2.52-8.41-0.44-15.41-5.37-22.16c-1.28-1.76-3.96-0.17-3.64,1.76c1.08,6.6,2.12,20.77-6.62,23.08
	c-3.38,0.9-6.24,0.16-9.06-1.83c-1.95-1.38-3.76-3.63-5.37-5.36c-2.44-2.63-5.06-5.11-6.28-8.58
	C410.48,380.82,409.63,381.23,409.67,381.79z"/>
<path class="st8" d="M310.08,449.35c-12.64,4.63-26.11,7.96-38.47,13.17c-8.01,3.38-3.18,14.21,4.42,13.58
	c7.14-0.59,14.65-3.86,21.46-5.98c6.54-2.05,13.05-4.17,19.55-6.32C326.73,460.6,319.79,445.8,310.08,449.35z"/>
<path class="st8" d="M303.44,425.98c-12.77,4.53-25.55,9.45-38.54,13.3c-8.5,2.52-6.58,15.51,2.52,13.84
	c14.01-2.58,27.69-6.77,41.33-10.81C320.85,438.72,315.3,421.77,303.44,425.98z"/>
<path class="st8" d="M379.95,478.91c-0.2-1.95-0.57-3.83-1.18-5.6c-0.96-2.75-4.72-2.95-6.68-1.37c-1.15,0.93-2.18,2.04-3.12,3.25
	c-8.91,0.73-19.55,6.86-25.79,9.66c-11.36,5.11-22.36,11.09-32.84,17.86c-3.82,2.47-7.57,5.04-11.24,7.71
	c-22.24,16.23-46.05,44.66-22.7,70.53c3.98,4.41,8.87,8.26,14.26,11.09c6.13,3.22,12.9,5.11,19.71,4.98
	c2.92-0.06,5.84-0.48,8.73-1.33c15.56-4.59,26.15-18.46,33.98-31.89c9.37-16.06,15.61-33.61,20.68-51.42
	c2.11-7.42,5.35-17,6.17-25.99c0.43-0.65,0.83-1.32,1.16-2.06c0.32-0.71,0.4-1.42,0.35-2.11C381.34,481,380.76,479.87,379.95,478.91
	z M342.05,542.28c-9.83,21.32-29.36,49.05-52.16,24.36c-16.62-17.99,17.5-41.14,29.99-49.12c11.57-7.39,23.92-13.62,36.53-19.01
	c1.01-0.43,2.08-0.84,3.19-1.22c-0.32,0.93-0.63,1.84-0.96,2.7C353.26,514.17,348.41,528.47,342.05,542.28z"/>
</svg>
